# xmcd CD database file
#
# Track frame offsets:
#	150
#	17872
#	41272
#	58287
#	75805
#	90787
#	107720
#	125455
#	141660
#	158965
#	176627
#
# Disc length: 2553 seconds
#
# Revision: 0
# Processed by: cddbd v1.5PL3 Copyright (c) Steve Scherf et al.
# Submitted via: CDex 1.51
#
DISCID=8709f70b
DTITLE=KALAPANA - KALAPANA 3
DYEAR=1994
DGENRE=Rock/Pop
TTITLE0=Alisa Lovely
TTITLE1=Another Time
TTITLE2=Dilemma
TTITLE3=Girl
TTITLE4=Inarajan
TTITLE5=Mana
TTITLE6=Seasongs
TTITLE7=Songbird
TTITLE8=Thoughts Of You
TTITLE9=Up ToYou
TTITLE10=Many Classic Moments
EXTD=YEAR: 1994
EXTT0=
EXTT1=
EXTT2=
EXTT3=
EXTT4=
EXTT5=
EXTT6=
EXTT7=
EXTT8=
EXTT9=
EXTT10=
PLAYORDER=
